<svg xmlns="http://www.w3.org/2000/svg" viewBox="0 0 1200 630" role="img" aria-labelledby="title desc">
  <title id="title">bitnet-android-lab hero</title>
  <desc id="desc">A geometric banner showing an Android phone frame, binary chip blocks, and monitoring bars on a dark background.</desc>
  <defs>
    <linearGradient id="bg" x1="0%" y1="0%" x2="100%" y2="100%">
      <stop offset="0%" stop-color="#08111f"/>
      <stop offset="100%" stop-color="#0f172a"/>
    </linearGradient>
    <linearGradient id="panel" x1="0%" y1="0%" x2="100%" y2="100%">
      <stop offset="0%" stop-color="#0f766e"/>
      <stop offset="100%" stop-color="#0369a1"/>
    </linearGradient>
  </defs>
  <rect width="1200" height="630" fill="url(#bg)"/>
  <circle cx="1030" cy="116" r="108" fill="#0ea5e9" opacity="0.1"/>
  <circle cx="1125" cy="516" r="140" fill="#22c55e" opacity="0.08"/>
  <rect x="84" y="88" width="356" height="454" rx="48" fill="#111827" stroke="#38bdf8" stroke-width="10"/>
  <rect x="116" y="126" width="292" height="312" rx="28" fill="#e0f2fe"/>
  <rect x="206" y="470" width="112" height="14" rx="7" fill="#7dd3fc"/>
  <rect x="156" y="176" width="62" height="62" rx="16" fill="#0284c7"/>
  <rect x="235" y="176" width="62" height="62" rx="16" fill="#22c55e"/>
  <rect x="314" y="176" width="62" height="62" rx="16" fill="#0284c7"/>
  <rect x="156" y="274" width="154" height="18" rx="9" fill="#0f172a" opacity="0.18"/>
  <rect x="156" y="310" width="186" height="22" rx="11" fill="#0f172a" opacity="0.18"/>
  <rect x="156" y="352" width="212" height="18" rx="9" fill="#0f172a" opacity="0.18"/>
  <rect x="380" y="148" width="18" height="290" rx="9" fill="#7dd3fc"/>
  <rect x="380" y="286" width="18" height="78" rx="9" fill="#22c55e"/>
  <rect x="520" y="124" width="598" height="382" rx="34" fill="#0b1220" stroke="#1e293b" stroke-width="4"/>
  <rect x="552" y="160" width="198" height="118" rx="22" fill="url(#panel)" opacity="0.9"/>
  <rect x="786" y="160" width="300" height="118" rx="22" fill="#111827"/>
  <rect x="812" y="188" width="96" height="18" rx="9" fill="#38bdf8" opacity="0.85"/>
  <rect x="812" y="222" width="220" height="14" rx="7" fill="#334155"/>
  <rect x="812" y="252" width="188" height="14" rx="7" fill="#334155"/>
  <rect x="552" y="314" width="534" height="24" rx="12" fill="#1e293b"/>
  <rect x="552" y="314" width="392" height="24" rx="12" fill="#22c55e"/>
  <rect x="552" y="362" width="534" height="24" rx="12" fill="#1e293b"/>
  <rect x="552" y="362" width="286" height="24" rx="12" fill="#f59e0b"/>
  <rect x="552" y="410" width="534" height="24" rx="12" fill="#1e293b"/>
  <rect x="552" y="410" width="458" height="24" rx="12" fill="#38bdf8"/>
  <text x="552" y="540" fill="#f8fafc" font-family="'Segoe UI', 'Noto Sans', sans-serif" font-size="56" font-weight="700">bitnet-android-lab</text>
  <text x="552" y="588" fill="#cbd5e1" font-family="'Segoe UI', 'Noto Sans', sans-serif" font-size="28">QVAC BitNet LoRA on Android with Termux, evidence, patches, and live monitoring helpers</text>
</svg>
