<svg xmlns="http://www.w3.org/2000/svg" viewBox="0 0 1200 630" role="img" aria-labelledby="title desc">
  <title id="title">bitnet-android-lab release header v0.1.0</title>
  <desc id="desc">Release banner for bitnet-android-lab v0.1.0 with a phone motif, version badge, and short release highlights.</desc>
  <defs>
    <linearGradient id="bg" x1="0%" y1="0%" x2="100%" y2="100%">
      <stop offset="0%" stop-color="#07111d"/>
      <stop offset="55%" stop-color="#0b1324"/>
      <stop offset="100%" stop-color="#0f172a"/>
    </linearGradient>
    <linearGradient id="teal" x1="0%" y1="0%" x2="100%" y2="100%">
      <stop offset="0%" stop-color="#14b8a6"/>
      <stop offset="100%" stop-color="#0369a1"/>
    </linearGradient>
    <linearGradient id="accent" x1="0%" y1="0%" x2="100%" y2="0%">
      <stop offset="0%" stop-color="#22c55e"/>
      <stop offset="100%" stop-color="#38bdf8"/>
    </linearGradient>
    <filter id="shadow" x="-20%" y="-20%" width="140%" height="140%">
      <feDropShadow dx="0" dy="18" stdDeviation="22" flood-color="#020617" flood-opacity="0.42"/>
    </filter>
  </defs>

  <rect width="1200" height="630" fill="url(#bg)"/>
  <circle cx="1085" cy="110" r="130" fill="#0ea5e9" opacity="0.08"/>
  <circle cx="1118" cy="520" r="150" fill="#22c55e" opacity="0.06"/>
  <path d="M0 540 C180 500 250 620 435 590 L435 630 L0 630 Z" fill="#0b1220" opacity="0.82"/>
  <path d="M845 0 C965 42 1100 18 1200 84 L1200 0 Z" fill="#111827" opacity="0.44"/>

  <g opacity="0.18">
    <path d="M486 78 H1116" stroke="#1e293b" stroke-width="2"/>
    <path d="M486 132 H1116" stroke="#1e293b" stroke-width="2"/>
    <path d="M486 186 H1116" stroke="#1e293b" stroke-width="2"/>
    <path d="M486 240 H1116" stroke="#1e293b" stroke-width="2"/>
    <path d="M486 294 H1116" stroke="#1e293b" stroke-width="2"/>
    <path d="M486 348 H1116" stroke="#1e293b" stroke-width="2"/>
    <path d="M486 402 H1116" stroke="#1e293b" stroke-width="2"/>
    <path d="M486 456 H1116" stroke="#1e293b" stroke-width="2"/>
  </g>

  <g filter="url(#shadow)">
    <rect x="74" y="70" width="324" height="494" rx="48" fill="#0f172a" stroke="#38bdf8" stroke-width="9"/>
    <rect x="104" y="106" width="264" height="338" rx="28" fill="#dff4ff"/>
    <rect x="173" y="480" width="126" height="14" rx="7" fill="#7dd3fc"/>
    <rect x="136" y="166" width="56" height="56" rx="14" fill="#0284c7"/>
    <rect x="208" y="166" width="56" height="56" rx="14" fill="#22c55e"/>
    <rect x="280" y="166" width="56" height="56" rx="14" fill="#0284c7"/>
    <rect x="136" y="262" width="142" height="16" rx="8" fill="#0f172a" opacity="0.16"/>
    <rect x="136" y="296" width="178" height="20" rx="10" fill="#0f172a" opacity="0.18"/>
    <rect x="136" y="336" width="200" height="16" rx="8" fill="#0f172a" opacity="0.16"/>
    <rect x="344" y="146" width="12" height="260" rx="6" fill="#7dd3fc"/>
    <rect x="344" y="260" width="12" height="86" rx="6" fill="#22c55e"/>
  </g>

  <rect x="458" y="74" width="662" height="74" rx="22" fill="#0b1220" stroke="#1e293b" stroke-width="3"/>
  <rect x="484" y="96" width="188" height="30" rx="15" fill="#111827"/>
  <rect x="484" y="96" width="126" height="30" rx="15" fill="url(#accent)"/>
  <text x="697" y="117" fill="#cbd5e1" font-family="'Segoe UI', 'Noto Sans', sans-serif" font-size="18" font-weight="700">INITIAL PUBLIC RELEASE</text>

  <text x="458" y="236" fill="#f8fafc" font-family="'Segoe UI', 'Noto Sans', sans-serif" font-size="50" font-weight="700">bitnet-android-lab</text>
  <text x="458" y="318" fill="#38bdf8" font-family="'Segoe UI', 'Noto Sans', sans-serif" font-size="88" font-weight="800">v0.1.0</text>
  <text x="458" y="372" fill="#dbeafe" font-family="'Segoe UI', 'Noto Sans', sans-serif" font-size="26" font-weight="600">Android Termux BitNet lab</text>
  <text x="458" y="410" fill="#cbd5e1" font-family="'Segoe UI', 'Noto Sans', sans-serif" font-size="24">Patches, evidence, bilingual docs, and an ADB watcher.</text>

  <g filter="url(#shadow)">
    <rect x="458" y="454" width="196" height="110" rx="24" fill="url(#teal)" opacity="0.96"/>
    <rect x="691" y="454" width="196" height="110" rx="24" fill="#111827"/>
    <rect x="924" y="454" width="196" height="110" rx="24" fill="#111827"/>
  </g>

  <text x="482" y="495" fill="#e6fffb" font-family="'Segoe UI', 'Noto Sans', sans-serif" font-size="16" font-weight="700">EVIDENCE + PATCHES</text>
  <text x="482" y="530" fill="#f8fafc" font-family="'Segoe UI', 'Noto Sans', sans-serif" font-size="24" font-weight="800">Real-device lab</text>
  <text x="482" y="555" fill="#dbeafe" font-family="'Segoe UI', 'Noto Sans', sans-serif" font-size="16">Scripts, logs, and</text>
  <text x="482" y="576" fill="#dbeafe" font-family="'Segoe UI', 'Noto Sans', sans-serif" font-size="16">minimal Android fixes.</text>

  <text x="715" y="495" fill="#7dd3fc" font-family="'Segoe UI', 'Noto Sans', sans-serif" font-size="16" font-weight="700">ADB WATCHER</text>
  <text x="715" y="530" fill="#f8fafc" font-family="'Segoe UI', 'Noto Sans', sans-serif" font-size="24" font-weight="800">Per-core bars</text>
  <text x="715" y="555" fill="#cbd5e1" font-family="'Segoe UI', 'Noto Sans', sans-serif" font-size="16">CPU load, freq,</text>
  <text x="715" y="576" fill="#cbd5e1" font-family="'Segoe UI', 'Noto Sans', sans-serif" font-size="16">top, and dumpsys.</text>

  <text x="948" y="495" fill="#22c55e" font-family="'Segoe UI', 'Noto Sans', sans-serif" font-size="16" font-weight="700">BILINGUAL DOCS</text>
  <text x="948" y="530" fill="#f8fafc" font-family="'Segoe UI', 'Noto Sans', sans-serif" font-size="24" font-weight="800">Pages + CI</text>
  <text x="948" y="555" fill="#cbd5e1" font-family="'Segoe UI', 'Noto Sans', sans-serif" font-size="16">English and Japanese</text>
  <text x="948" y="576" fill="#cbd5e1" font-family="'Segoe UI', 'Noto Sans', sans-serif" font-size="16">release docs and guide.</text>
</svg>
